<svg version="1.1" id="Layer_1" xmlns="http://www.w3.org/2000/svg" xmlns:xlink="http://www.w3.org/1999/xlink" x="0px" y="0px"
	 width="100%" viewBox="0 0 307 306" enable-background="new 0 0 307 306" xml:space="preserve">
<path fill="#010000" opacity="1.000000" stroke="none" 
	d="
M1.299512,225.230316 
	C1.000000,176.979111 1.000000,128.958206 1.000000,80.468658 
	C4.781436,78.183441 5.192698,81.352608 5.921633,83.540642 
	C9.241178,93.504837 14.374421,102.305763 21.764669,109.837318 
	C42.704899,131.177933 76.838089,134.512848 101.823441,116.724159 
	C119.406357,104.205765 128.494797,86.664787 128.256912,65.507317 
	C127.943947,37.670433 111.806435,16.994822 87.534592,7.389349 
	C85.676132,6.653869 83.759666,6.071310 81.899620,5.334505 
	C80.192139,4.658133 78.974739,3.697916 79.769699,1.299152 
	C128.020889,1.000000 176.041794,1.000000 224.531342,1.000000 
	C226.803528,4.770545 223.668076,5.256569 221.459854,5.907109 
	C212.681168,8.493296 204.889893,12.797875 198.022675,18.808781 
	C182.255890,32.609489 175.155106,50.265484 176.742004,70.858635 
	C178.847412,98.180298 197.493958,119.462112 224.013504,126.366859 
	C259.292023,135.552124 295.782379,110.570984 300.558838,74.393776 
	C304.711792,42.939026 285.376526,15.652036 258.680664,6.620830 
	C256.231323,5.792207 252.153625,6.202242 252.769684,1.299715 
	C270.322815,1.000000 287.645996,1.052132 304.968079,0.940169 
	C307.386871,0.924535 308.070648,1.384690 308.068573,3.964887 
	C307.987732,103.904190 307.984253,203.843582 308.080170,303.782837 
	C308.082916,306.619446 307.426758,307.074066 304.720947,307.071777 
	C204.615097,306.986572 104.509125,306.977295 4.403354,307.101501 
	C1.154332,307.105530 0.916007,306.127045 0.936898,303.406982 
	C1.063541,286.917908 1.000000,270.427368 1.000000,253.468658 
	C4.779358,251.189178 5.192906,254.351089 5.921708,256.542786 
	C9.236827,266.512238 14.329138,275.361725 21.781586,282.832703 
	C49.855263,310.976227 96.462578,305.487030 117.514961,273.642578 
	C143.895798,233.738205 119.127449,181.905579 71.810364,176.749451 
	C44.295105,173.751160 17.801315,190.046875 7.549335,216.987976 
	C6.778964,219.012466 6.130838,221.081863 5.334982,223.098175 
	C4.660351,224.807358 3.698561,226.023254 1.299512,225.230316 
z"/>
<path fill="#FE0000" opacity="1.000000" stroke="none" 
	d="
M79.531342,1.000000 
	C79.500526,4.001835 82.120560,2.885659 83.282745,3.252028 
	C105.677536,10.311839 121.001053,24.716341 127.903175,47.226978 
	C138.488144,81.748802 118.930473,117.478912 84.105186,128.045532 
	C50.569092,138.220978 14.539372,118.909927 3.889302,85.126114 
	C3.265033,83.145828 3.508675,80.741577 1.265178,79.642632 
	C1.000000,70.979103 1.000000,61.958210 1.000000,52.468658 
	C3.176424,46.327972 3.146378,40.107750 6.304359,34.574909 
	C14.223233,20.700891 25.111982,10.324344 39.763840,3.934593 
	C43.469303,2.318620 47.614101,2.732281 51.702240,1.243229 
	C61.020893,1.000000 70.041786,1.000000 79.531342,1.000000 
z"/>
<path fill="#FE0000" opacity="1.000000" stroke="none" 
	d="
M252.531342,1.000000 
	C252.640060,3.781072 255.081329,2.931539 256.274170,3.297174 
	C277.425415,9.780588 292.492004,23.149282 299.757019,43.991924 
	C308.391266,68.762680 303.680206,91.671532 285.512726,110.605301 
	C267.347321,129.536896 244.583420,135.432220 219.557495,127.577400 
	C194.594589,119.742378 179.369400,102.083023 174.931839,76.140083 
	C169.384949,43.711628 189.089035,12.946552 220.683228,3.566335 
	C222.371964,3.064954 224.418381,3.262964 225.327072,1.284614 
	C234.020889,1.000000 243.041794,1.000000 252.531342,1.000000 
z"/>
<path fill="#FE0000" opacity="1.000000" stroke="none" 
	d="
M1.000000,225.468658 
	C3.629141,225.328644 2.784211,223.076340 3.115706,221.928299 
	C11.689330,192.235611 37.569653,173.184891 68.341522,173.991150 
	C100.985878,174.846466 127.364807,200.359116 130.606720,234.211548 
	C133.551773,264.963959 111.041313,295.294098 80.313789,301.975250 
	C46.227398,309.386749 13.555024,290.089752 3.458526,256.636963 
	C3.003628,255.129776 3.331496,253.188736 1.255443,252.629913 
	C1.000000,243.979111 1.000000,234.958206 1.000000,225.468658 
z"/>
<path fill="#040000" opacity="1.000000" stroke="none" 
	d="
M51.531342,1.000000 
	C52.946125,2.764985 51.275635,2.651128 50.501900,2.863415 
	C25.283566,9.782495 9.453845,25.963161 2.682779,51.148754 
	C2.528574,51.722336 1.935353,52.177891 1.273457,52.344250 
	C1.000000,36.068935 1.091690,20.136852 0.914496,4.207760 
	C0.883030,1.379084 1.561699,0.895673 4.265964,0.923037 
	C19.863533,1.080867 35.463516,1.000000 51.531342,1.000000 
z"/>
<path fill="#FE0000" opacity="1.000000" stroke="none" 
	d="
M193.201874,284.796753 
	C174.851700,265.246033 169.076752,242.755402 177.660934,217.722244 
	C186.032593,193.308792 203.887070,178.961288 229.352036,174.690018 
	C255.931107,170.231857 282.618530,183.790192 295.970490,208.019348 
	C308.650146,231.028488 305.430328,260.920990 288.123291,280.872162 
	C263.264404,309.528931 221.205475,311.382751 193.201874,284.796753 
z"/>
</svg>